HIERARCHY
ROOT Hips
{
	OFFSET 0.00 0.00 0.00
	CHANNELS 6 Xposition Yposition Zposition Yrotation Xrotation Zrotation
	JOINT LHipJoint
	{
		OFFSET	0.0000	0.0000	0.0000
		CHANNELS 3 Yrotation Xrotation Zrotation
		JOINT LeftUpLeg
		{
			OFFSET	1.0138	-0.0809	-0.0827
			CHANNELS 3 Yrotation Xrotation Zrotation
			JOINT LeftLeg
			{
				OFFSET	0.4110	-3.9095	0.3245
				CHANNELS 3 Yrotation Xrotation Zrotation
				JOINT LeftFoot
				{
					OFFSET	0.3810	-4.0555	-0.1470
					CHANNELS 3 Yrotation Xrotation Zrotation
					JOINT LeftToeBase
					{
						OFFSET	0.1396	-0.4462	1.3079
						CHANNELS 3 Yrotation Xrotation Zrotation
						End Site
						{
							OFFSET 0.0161 -0.0248 0.1809
						}
					}
				}
			}
		}
	}
	JOINT LowerBack
	{
		OFFSET	0.0000	0.7977	-0.3873
		CHANNELS 3 Yrotation Xrotation Zrotation
		JOINT Spine
		{
			OFFSET	0.0000	1.4131	0.1715
			CHANNELS 3 Yrotation Xrotation Zrotation
			JOINT Spine1
			{
				OFFSET	0.0000	1.4392	-0.1032
				CHANNELS 3 Yrotation Xrotation Zrotation
				JOINT LeftShoulder
				{
					OFFSET	0.2274	1.0382	0.4032
					CHANNELS 3 Yrotation Xrotation Zrotation
					JOINT LeftArm
					{
						OFFSET	1.4730	-0.2267	-0.0231
						CHANNELS 3 Yrotation Xrotation Zrotation
						JOINT LeftForeArm
						{
							OFFSET	1.6131	-1.8059	0.0081
							CHANNELS 3 Yrotation Xrotation Zrotation
							JOINT LeftHand
							{
								OFFSET	1.2197	-1.2423	1.6317
								CHANNELS 3 Yrotation Xrotation Zrotation
								JOINT LThumb
								{
									OFFSET	0.0109	-0.0753	0.4387
									CHANNELS 3 Yrotation Xrotation Zrotation
									End Site
									{
										OFFSET -0.2090 -0.0868 0.2097
									}
								}
								JOINT LeftFingerBase
								{
									OFFSET	0.1071	-0.1567	0.2607
									CHANNELS 3 Yrotation Xrotation Zrotation
									JOINT LeftHandFinger1
									{
										OFFSET	0.1706	-0.2492	0.6830
										CHANNELS 3 Yrotation Xrotation Zrotation
										End Site
										{
											OFFSET 0.0335 -0.1507 0.2071
										}
									}
								}
							}
						}
					}
				}
				JOINT Neck
				{
					OFFSET	0.0000	1.7498	0.2381
					CHANNELS 3 Yrotation Xrotation Zrotation
					JOINT Neck1
					{
						OFFSET	0.0000	0.5043	0.1959
						CHANNELS 3 Yrotation Xrotation Zrotation
						JOINT Head
						{
							OFFSET	0.0000	0.5044	0.1959
							CHANNELS 3 Yrotation Xrotation Zrotation
							End Site
							{
								OFFSET 0.0000 1.4798 -0.0693
							}
						}
					}
				}
				JOINT RightShoulder
				{
					OFFSET	-0.2274	1.0382	0.4032
					CHANNELS 3 Yrotation Xrotation Zrotation
					JOINT RightArm
					{
						OFFSET	-1.4730	-0.2267	-0.0231
						CHANNELS 3 Yrotation Xrotation Zrotation
						JOINT RightForeArm
						{
							OFFSET	-1.6131	-1.8059	0.0081
							CHANNELS 3 Yrotation Xrotation Zrotation
							JOINT RightHand
							{
								OFFSET	-1.2197	-1.2423	1.6317
								CHANNELS 3 Yrotation Xrotation Zrotation
								JOINT RThumb
								{
									OFFSET	-0.0109	-0.0753	0.4387
									CHANNELS 3 Yrotation Xrotation Zrotation
									End Site
									{
										OFFSET 0.2090 -0.0868 0.2097
									}
								}
								JOINT RightFingerBase
								{
									OFFSET	-0.1071	-0.1567	0.2607
									CHANNELS 3 Yrotation Xrotation Zrotation
									JOINT RightHandFinger1
									{
										OFFSET	-0.1706	-0.2492	0.6830
										CHANNELS 3 Yrotation Xrotation Zrotation
										End Site
										{
											OFFSET -0.0335 -0.1507 0.2071
										}
									}
								}
							}
						}
					}
				}
			}
		}
	}
	JOINT RHipJoint
	{
		OFFSET	0.0000	0.0000	0.0000
		CHANNELS 3 Yrotation Xrotation Zrotation
		JOINT RightUpLeg
		{
			OFFSET	-1.0138	-0.0809	-0.0827
			CHANNELS 3 Yrotation Xrotation Zrotation
			JOINT RightLeg
			{
				OFFSET	-0.4110	-3.9095	0.3245
				CHANNELS 3 Yrotation Xrotation Zrotation
				JOINT RightFoot
				{
					OFFSET	-0.3810	-4.0555	-0.1470
					CHANNELS 3 Yrotation Xrotation Zrotation
					JOINT RightToeBase
					{
						OFFSET	-0.1396	-0.4462	1.3079
						CHANNELS 3 Yrotation Xrotation Zrotation
						End Site
						{
							OFFSET -0.0161 -0.0248 0.1809
						}
					}
				}
			}
		}
	}
}
MOTION
Frames: 6
Frame Time: 0.0333333
0.2203 7.6049 0.0634 -81.0870 20.2771 -0.6639 0.0000 -0.0000 0.0000 -7.5591 -38.8580 2.4736 156.8766 64.4178 149.6805 -1.1460 -7.8841 8.7248 -0.0000 -8.3477 -0.0000 0.0000 -0.0000 0.0000 6.0626 5.3501 -1.2985 12.4885 10.7934 -1.9147 2.0950 0.6457 -2.8621 -7.3701 10.7961 -7.6130 -12.1754 -12.1415 -0.5527 -3.8203 4.0165 25.4549 13.3887 -2.8293 -0.2629 3.2953 7.1690 -0.5058 2.4398 -14.6965 4.3505 7.1125 -2.4789 1.3899 7.1374 -2.5617 1.1017 42.8957 -7.3870 -29.6181 15.7981 0.1898 4.2276 -7.4871 2.8611 10.9768 15.8511 -15.8793 -0.4083 -8.2753 48.4723 -10.5090 -20.7380 3.0337 -9.0445 20.5008 22.5350 23.6443 8.3049 -2.5415 3.8335 0.0000 -0.0000 0.0000 -11.3905 -45.1391 17.9080 2.1387 53.6855 5.6449 5.3337 -26.6530 -18.1504 0.0000 -9.8296 0.0000 
0.2360 7.6375 0.0829 -81.5657 20.7693 0.9031 0.0000 -0.0000 0.0000 -6.6370 -59.1247 1.1267 166.1633 64.3513 157.7958 -2.4395 -13.4589 10.6438 0.0000 -7.6378 -0.0000 0.0000 -0.0000 0.0000 7.6738 5.4953 -2.0557 15.1097 11.3770 -4.2039 5.1164 0.6380 -1.5381 -3.5225 16.5738 -9.9744 -6.3720 -5.9165 -1.5811 -9.8842 2.7736 30.0541 14.0794 -2.1640 0.6925 1.6204 8.6305 -2.0492 1.1530 -12.9940 3.4063 6.1837 -2.4636 2.2033 6.2245 -2.6482 1.9276 41.4081 -7.5287 -29.2420 16.3243 0.2958 3.1465 -4.2543 -5.0870 5.4802 29.5234 -27.8562 -5.7890 -17.8771 47.5128 -12.5331 -20.8204 3.0852 -9.1409 20.6042 22.5692 23.7468 8.3793 -2.4679 3.8933 0.0000 -0.0000 0.0000 -8.8945 -31.6783 16.0668 1.1758 48.8668 2.6205 9.1689 -35.9986 -20.7661 -0.0000 -9.8798 0.0000 
0.2037 7.7082 0.1032 -81.5093 20.9399 3.3320 0.0000 -0.0000 0.0000 4.8224 -74.7580 -11.8755 155.0962 71.4126 146.8614 -3.0506 -15.8373 11.9315 -0.0000 -6.4355 0.0000 0.0000 -0.0000 0.0000 9.3860 5.5203 -3.0494 17.6801 11.9286 -7.2626 8.3708 0.2994 1.7462 -0.2461 24.2954 -11.8387 -4.4314 -3.7732 -1.7844 -13.4705 -0.4478 34.9933 14.9233 -1.3800 1.8503 -0.9698 10.8126 -4.4989 -0.5469 -10.8168 2.1323 5.1207 -1.8510 3.0399 5.1869 -2.1398 2.8220 39.5404 -7.9567 -28.7213 16.4956 0.4795 1.6472 -3.6137 -11.1908 1.2937 45.9099 -37.8878 -14.9934 -22.0045 46.0254 -16.8978 -20.8144 3.0800 -9.1318 20.5952 22.5651 23.7380 8.3727 -2.4745 3.8880 0.0000 -0.0000 0.0000 -7.9283 -13.4099 13.8225 0.4376 33.7967 -1.8412 11.6778 -36.2220 -20.1889 0.0000 -16.7430 0.0000 
0.0791 7.7784 0.1077 -80.7408 20.7875 5.7079 0.0000 -0.0000 0.0000 37.5102 -80.6648 -47.4969 94.4527 84.7129 86.5231 -2.3141 -16.3750 11.1991 -0.0000 -5.6642 0.0000 0.0000 -0.0000 0.0000 11.0648 5.4825 -4.0576 20.0963 12.2918 -9.6588 10.8488 -0.5141 6.3270 2.4957 32.3649 -13.5709 -5.8778 -5.3729 -1.6397 -14.2045 -2.6760 37.8507 15.9080 -0.5047 3.1882 -4.4529 13.5240 -7.8681 -2.6335 -8.2589 0.5313 4.0884 -0.8352 3.5636 4.1813 -1.1967 3.4419 37.4476 -8.5474 -28.3986 15.9637 0.6528 0.2445 -8.4910 -14.8626 -0.8258 64.8574 -44.5589 -27.7806 -19.3957 40.6422 -21.6108 -20.7872 3.0616 -9.0997 20.5600 22.5549 23.7031 8.3476 -2.4992 3.8679 0.0000 -0.0000 0.0000 -8.0873 8.1181 12.4378 1.5783 10.4706 -5.6859 8.7405 -20.3456 -15.7468 0.0000 -23.5980 0.0000 
-0.0686 7.7946 0.0908 -79.4186 20.2709 6.6826 0.0000 -0.0000 0.0000 48.0663 -79.5411 -61.7524 -2.0808 67.9263 -7.2973 0.0395 -14.8543 2.1819 -0.0000 -5.9774 -0.0000 0.0000 -0.0000 0.0000 12.2687 5.3303 -4.8033 22.1355 11.9789 -10.1395 11.7773 -1.4361 10.7642 4.8597 38.4836 -14.8206 -8.7321 -8.4874 -1.2377 -12.9823 -1.9259 37.6723 16.9860 0.4071 4.6384 -8.7027 16.4773 -12.0585 -5.0128 -5.4981 -1.3387 3.3024 0.2372 3.7448 3.4129 -0.1548 3.7322 35.5641 -8.8123 -28.3388 14.8028 0.7238 -0.5886 -18.6618 -16.6508 -0.6408 83.2108 -47.2431 -41.1974 -11.9426 31.4880 -27.5444 -20.8943 3.1364 -9.2369 20.7024 22.6091 23.8444 8.4514 -2.3968 3.9513 0.0000 -0.0000 0.0000 -10.1149 19.8410 12.2132 5.8447 4.6841 -7.7437 3.1679 3.8568 0.6108 0.0139 -20.0924 1.3320 
-0.1921 7.7622 0.0749 -78.1500 19.3621 5.5218 0.0000 -0.0000 0.0000 26.6187 -74.4892 -42.7832 -2.2578 42.1254 -4.3835 1.5330 -10.7653 -9.5045 0.0000 -6.9460 -0.0000 0.0000 -0.0000 0.0000 13.0175 4.9764 -4.9425 23.2981 10.8541 -8.8331 11.3443 -1.9694 13.6197 6.7436 41.3415 -15.3711 -10.8857 -10.7883 -0.8344 -11.7582 1.5503 36.0251 18.0915 1.2947 6.1119 -13.4987 19.3627 -16.8550 -7.5489 -2.7379 -3.3770 2.9343 0.9920 3.8948 3.0487 0.5896 3.9648 34.4736 -8.2532 -28.2367 13.6189 0.7010 -0.6813 -28.9773 -16.7255 0.6110 96.4913 -47.2609 -51.0930 -3.4767 24.2866 -34.7808 -21.0758 3.2657 -9.4665 20.9456 22.6925 24.0847 8.6269 -2.2244 4.0925 0.0000 -0.0000 0.0000 -14.0951 21.9850 12.1179 7.5340 21.9082 -3.4987 2.1405 4.4844 8.6327 -0.0000 -10.6364 0.0000 
